<svg width="24" height="22" viewBox="0 0 24 22" fill="none" xmlns="http://www.w3.org/2000/svg">
<path d="M18.4687 21.5007C18.3109 21.5013 18.1568 21.4521 18.0286 21.3601L12 16.9895L5.97139 21.3601C5.84259 21.4535 5.68742 21.5035 5.52832 21.503C5.36921 21.5024 5.21441 21.4512 5.08629 21.3569C4.95818 21.2625 4.86339 21.1299 4.81563 20.9781C4.76787 20.8263 4.76961 20.6633 4.82061 20.5126L7.17186 13.5484L1.07811 9.36947C0.946113 9.27905 0.846491 9.14879 0.793797 8.99772C0.741103 8.84666 0.7381 8.6827 0.785225 8.5298C0.83235 8.37691 0.927135 8.24309 1.05573 8.1479C1.18432 8.05271 1.33999 8.00114 1.49998 8.00072H9.0178L11.2865 1.01868C11.3354 0.867945 11.4308 0.736559 11.559 0.643376C11.6871 0.550192 11.8415 0.5 12 0.5C12.1584 0.5 12.3128 0.550192 12.441 0.643376C12.5692 0.736559 12.6645 0.867945 12.7134 1.01868L14.9822 8.00306H22.5C22.6602 8.00298 22.8162 8.0542 22.9452 8.1492C23.0741 8.24421 23.1693 8.37802 23.2167 8.53103C23.2642 8.68404 23.2613 8.84822 23.2087 8.99952C23.1561 9.15081 23.0564 9.28128 22.9242 9.37181L16.8281 13.5484L19.178 20.5107C19.216 20.6234 19.2267 20.7436 19.2092 20.8613C19.1917 20.979 19.1464 21.0908 19.0771 21.1875C19.0078 21.2842 18.9165 21.3631 18.8107 21.4175C18.7049 21.472 18.5877 21.5005 18.4687 21.5007Z" fill="#FADB6F"/>
</svg>
