<svg width="78" height="66" viewBox="0 0 78 66" fill="none" xmlns="http://www.w3.org/2000/svg">
<path d="M30.96 1.2C25.68 5.99999 21.6 11.36 18.72 17.28C15.84 23.2 14.4 28.64 14.4 33.6C15.68 32.96 17.44 32.64 19.68 32.64C24 32.64 27.6 34.16 30.48 37.2C33.36 40.24 34.8 44.08 34.8 48.72C34.8 53.84 33.12 58 29.76 61.2C26.56 64.4 22.48 66 17.52 66C12.08 66 7.76 64.32 4.56 60.96C1.52 57.6 0 53.36 0 48.24C0 38.16 1.84 29.04 5.52 20.88C9.36 12.72 14.4 6.31999 20.64 1.67999C21.92 0.559998 23.84 0 26.4 0C28.48 0 30 0.399998 30.96 1.2ZM73.92 1.2C68.64 5.99999 64.56 11.36 61.68 17.28C58.8 23.2 57.36 28.64 57.36 33.6C58.64 32.96 60.4 32.64 62.64 32.64C66.96 32.64 70.56 34.16 73.44 37.2C76.32 40.24 77.76 44.08 77.76 48.72C77.76 53.84 76.08 58 72.72 61.2C69.52 64.4 65.44 66 60.48 66C55.04 66 50.72 64.32 47.52 60.96C44.48 57.6 42.96 53.36 42.96 48.24C42.96 38.16 44.8 29.04 48.48 20.88C52.32 12.72 57.36 6.31999 63.6 1.67999C64.88 0.559998 66.8 0 69.36 0C71.44 0 72.96 0.399998 73.92 1.2Z" fill="#FADB6F"/>
</svg>
