<svg width="33" height="32" viewBox="0 0 33 32" fill="none" xmlns="http://www.w3.org/2000/svg">
<path fill-rule="evenodd" clip-rule="evenodd" d="M0.167791 22.2124V26.7997C2.77077 25.1365 8.53091 21.8904 10.7476 22.2124C13.5185 22.6148 6.71722 29.0532 3.1906 31.2261H12.8468C15.8137 28.0606 21.8145 21.311 22.0832 19.6371C22.4191 17.5446 27.1212 9.97949 29.7242 7.72605C31.8066 5.92331 32.775 4.82878 32.9989 4.50686V0.804797L32.4951 0H27.1212C25.4978 3.27284 21.3107 10.4463 17.549 12.9572C14.4051 15.0558 12.4623 15.5714 10.1396 16.1878C8.98841 16.4933 7.74384 16.8235 6.21342 17.3836C2.51887 18.7357 0.643604 21.1661 0.167791 22.2124ZM19.6481 31.709C22.0832 29.9116 27.4067 24.9809 29.2204 19.6371C31.0341 14.2932 32.4951 12.3134 32.9989 11.9915L32.4951 23.661C32.3831 24.7341 31.1516 27.846 27.1212 31.709H19.6481ZM0 0.0798507V3.8624C1.03559 3.32587 3.577 1.81821 5.45786 0.0798507H0ZM34.9993 31.7665L29.9242 32.0006C30.688 31.3335 32.5278 29.5117 33.7763 27.5618L34.9993 31.7665ZM10.6389 0.5625C10.0262 1.5941 6.80787 4.05528 3.92265 6.26173C2.41001 7.41851 0.988915 8.50528 0.0828599 9.27931V17.7047C0.0828599 16.6473 2.62449 14.9124 5.65762 12.842L5.65763 12.842C7.28206 11.7331 9.04746 10.5281 10.6389 9.27931C15.0271 5.8361 16.4379 3.66986 17.7885 1.59619L17.7886 1.59605C18.0135 1.25079 18.2367 0.908096 18.4716 0.5625H10.6389Z" fill="#377E7F"/>
</svg>
