<svg width="78" height="66" viewBox="0 0 78 66" fill="none" xmlns="http://www.w3.org/2000/svg">
<path d="M4.08024 64.8C9.20024 60 13.2002 54.64 16.0802 48.72C19.1202 42.8 20.6402 37.36 20.6402 32.4C19.0402 33.04 17.2802 33.36 15.3602 33.36C11.0402 33.36 7.44023 31.84 4.56023 28.8C1.68023 25.76 0.240234 21.84 0.240234 17.04C0.240234 11.92 1.84023 7.84001 5.04024 4.80001C8.24023 1.6 12.3202 0 17.2802 0C22.7202 0 27.0402 1.68 30.2402 5.04001C33.4402 8.4 35.0402 12.64 35.0402 17.76C35.0402 27.84 33.1202 36.96 29.2802 45.12C25.4402 53.12 20.4802 59.52 14.4002 64.32C12.8002 65.44 10.8802 66 8.64023 66C6.56023 66 5.04024 65.6 4.08024 64.8ZM47.0402 64.8C52.1602 60 56.1602 54.64 59.0402 48.72C62.0802 42.8 63.6002 37.36 63.6002 32.4C62.0002 33.04 60.2402 33.36 58.3202 33.36C54.0002 33.36 50.4002 31.84 47.5202 28.8C44.6402 25.76 43.2002 21.84 43.2002 17.04C43.2002 11.92 44.8002 7.84001 48.0002 4.80001C51.2002 1.6 55.2802 0 60.2402 0C65.6802 0 70.0002 1.68 73.2002 5.04001C76.4002 8.4 78.0002 12.64 78.0002 17.76C78.0002 27.84 76.0802 36.96 72.2402 45.12C68.4002 53.12 63.4402 59.52 57.3602 64.32C55.7602 65.44 53.8402 66 51.6002 66C49.5202 66 48.0002 65.6 47.0402 64.8Z" fill="#FADB6F"/>
</svg>
